<svg id="Capa_1" data-name="Capa 1" xmlns="http://www.w3.org/2000/svg" viewBox="0 0 1063.84 984.8"><defs><style>.cls-1{fill:#524093;}.cls-1,.cls-2{stroke:#fff;stroke-miterlimit:10;stroke-width:8px;}.cls-2{fill:#2aadb2;}</style></defs><path class="cls-1" d="M262.17,748.61c-53-55.18-53.08-376.82-2.52-431.4,42.86-46.27,120.2-41.63,156.64-20,33.61,20,38.41,86.82,27,94-7,4.4-90,8-95.89-2.93-6.6-12.38,1.05-45-9.25-45.86S325.34,359.58,321,389.29c-4.6,31.21,5.7,243.79,7.88,261.24,1.13,9,1.93,64.83,10.9,67.88,16.49,5.61,5.67-32.69,14.25-40.48,15.11-13.72,91.76-9.63,98.87-1.95,4.07,4.39,13.43,74.28-33.37,96.4-25.2,11.9-110.55,24.93-157.31-23.77" transform="translate(-218.08 -274.59)"/><path class="cls-1" d="M679.35,508.29c34.07,11.39,37.49,93.77,35,147.09,0,0-53,9.76-92.9,0-3.89-1,.61-84.91-4.06-114.62-2.89-18.33-18-21.26-25.66-19.39-.13,13-1.56,134.24-1.56,134.24s-48,9.5-97.41,0V282.5s36.28-8.79,97.41,0c.69.1,1.29,14.76,1.39,19.08C597,286.49,621,276.5,653,280.46c95.77,11.87,88.08,224.9,26.34,227.83M616.1,346.85c-7.23-16.61-19.1-9.32-24.14.69.18,37.21.08,84.52-.22,132.73,2.82,9.18,15.89,6.59,23.69-4.13,9.57-13.15,7.87-112.76.67-129.29" transform="translate(-218.08 -274.59)"/><path class="cls-1" d="M995.82,365.59c8.21,44.36-.36,290.68-.36,290.68-53.72,6.54-103.41,0-103.41,0s.32-56.1.49-115.1H869.41c.35,58.94,1,115.1,1,115.1s-49.44,7.11-100.8,0c0,0-4.27-233.5,3.16-287.6,13.64-99.36,204.19-105.2,223.08-3.08m-103.77-5.32c-5.36-23.62-15.53-17.78-21.67,1-1,3.09-1.25,86.1-1.16,130.16h23.43c.05-45-.07-128.81-.6-131.13" transform="translate(-218.08 -274.59)"/><path class="cls-1" d="M1153.9,660.55c1.94,58.66,3.77,112.33,1.13,114.91-9.75,9.49-100.28,13.43-102.13-5.51-5.83-59.9-2.11-399,2.16-466.65,1.55-24.52,202.46-16.93,221.11-8.28,0,0,6.32,81.3-5.06,88.48-7,4.41-108.43.89-118.73,0-4.4-.38-1.65,158.12,0,214,36.21.34,98.51.75,111.8-.27,12.2-.94,12.2,61.66,0,62.64-26.09,2.09-78,1.42-110.24.72" transform="translate(-218.08 -274.59)"/><path class="cls-2" d="M290.38,856.09c-32.44-.28-57.33-.81-60.33-1.6-9.29-2.45-9.33-40.87,0-43.21,23.74-5.95,219.43-5,228.14,0,17.55,10.11,8.26,40.76,4.13,43.21-1.42.84-28.21,1.39-63.13,1.65,1.26,82.73,5.05,153.45.7,156.8-10.32,7.94-106.26,11.24-108.23-4.61-4.68-37.89-4.69-79.08-1.28-152.24" transform="translate(-218.08 -274.59)"/><path class="cls-2" d="M248.58,1148.77c0-56.32,22.87-109.67,98.22-109.67,71.71,0,96.17,53.35,96.17,109.67s-25.19,107.82-96.17,106.6c-75.34-1.3-98.22-50.27-98.22-106.6m87.1.85c0,39.88,2.4,75.9,10.29,76.82,7.43.87,10.08-36.94,10.08-76.82s-2.57-79-10.08-79c-7.9,0-10.29,39.13-10.29,79" transform="translate(-218.08 -274.59)"/><path class="cls-2" d="M637.86,1087.94c-.16,14.63-1.77,151-1.77,151s-54,10.69-109.59,0V816.11s40.82-9.89,109.59,0c.77.12,1.46,16.61,1.57,21.48,6.1-17,33.14-28.22,69.12-23.76,107.75,13.35,89.51,238.27,38.71,276.57-35.62,26.85-88.86,16.44-107.63-2.47Zm0-46.23c3.17,10.33,16,16.79,25.37,10.06,14.87-10.69,10.13-141.58,2-160.17s-21.49-10.49-27.15.78c.2,41.86.08,95.09-.25,149.33" transform="translate(-218.08 -274.59)"/><path class="cls-1" d="M948.14,1227.77c-11,10.68-112.82,15.11-114.9-6.2-6.57-67.4.07-309.65,4.88-385.81,1.74-27.59,89.73-18,110.71-8.28,0,0,6,393.77-.69,400.29" transform="translate(-218.08 -274.59)"/><path class="cls-1" d="M1260,903.51c9.23,49.9-.4,327-.4,327-60.45,7.36-116.35,0-116.35,0s.36-63.11.56-129.49h-26c.38,66.31,1.08,129.49,1.08,129.49s-55.62,8-113.4,0c0,0-4.81-262.7,3.55-323.57,15.34-111.78,229.73-118.36,251-3.46m-116.75-6c-6-26.57-17.48-20-24.38,1.1-1.13,3.47-1.41,96.87-1.31,146.44h26.37c.06-50.64-.08-144.92-.68-147.54" transform="translate(-218.08 -274.59)"/><path class="cls-1" d="M966.7,780.61H525.89a32.68,32.68,0,0,1-32.68-32.68V733.26a32.68,32.68,0,0,1,32.68-32.68H966.7a32.69,32.69,0,0,1,32.68,32.68v14.67a32.69,32.69,0,0,1-32.68,32.68" transform="translate(-218.08 -274.59)"/></svg>